<?xml version="1.0" encoding="UTF-8"?>
<svg version="1.1" xmlns="http://www.w3.org/2000/svg" width="48" height="48">
<path d="M0 0 C2.93081463 1.28637895 5.63522123 2.85104337 8.375 4.5 C12.149375 6.7275 12.149375 6.7275 16 9 C16 16.92 16 24.84 16 33 C13.48375 34.485 10.9675 35.97 8.375 37.5 C7.59431152 37.96986328 6.81362305 38.43972656 6.00927734 38.92382812 C1.88556361 41.29818272 -1.13808451 42.91160915 -6 42 C-8.93081463 40.71362105 -11.63522123 39.14895663 -14.375 37.5 C-16.89125 36.015 -19.4075 34.53 -22 33 C-22 25.08 -22 17.16 -22 9 C-19.48375 7.515 -16.9675 6.03 -14.375 4.5 C-13.59431152 4.03013672 -12.81362305 3.56027344 -12.00927734 3.07617188 C-7.88556361 0.70181728 -4.86191549 -0.91160915 0 0 Z " fill="#3A4AAB" transform="translate(27,3)"/>
<path d="M0 0 C3.75212276 2.01502889 5.63644095 3.45466142 8 7 C6.25 8.5625 6.25 8.5625 4 10 C1.83031791 9.75203633 0.55766393 9.55766393 -1 8 C-5.12795128 7.62418498 -5.12795128 7.62418498 -8.875 9.125 C-10.52854531 11.88090884 -10.39365568 13.85075452 -10 17 C-9 19 -9 19 -7 20 C-3.95788569 20.4167552 -3.95788569 20.4167552 -1 20 C-0.34 19.34 0.32 18.68 1 18 C3.61580479 18.3269756 5.64078137 18.82039068 8 20 C6.48209259 24.25014075 3.93622829 25.95899274 0 28 C-4.36240865 28.86900571 -7.27055791 28.36472104 -11.25 26.375 C-14.7168509 23.3809015 -17.47238201 20.69192851 -18.3828125 16.046875 C-18.6746341 10.94972447 -17.39090366 7.9263095 -14 4 C-9.53672431 0.14535282 -5.74493622 -1.1558537 0 0 Z " fill="#F7F8FB" transform="translate(28,10)"/>
<path d="M0 0 C2.59807815 1.12357052 4.96971618 2.51364507 7.375 4 C8.01566406 4.3815625 8.65632813 4.763125 9.31640625 5.15625 C10.88462755 6.09250152 12.44332645 7.04467157 14 8 C13.67 9.32 13.34 10.64 13 12 C10.8125 12.75 10.8125 12.75 8 13 C5.3125 11.125 5.3125 11.125 3 9 C-0.21685579 7.39157211 -3.5111009 7.53221465 -7 8 C-11.36045847 10.22136563 -14.13277421 12.43567029 -16 17 C-16.40931659 20.86576784 -16.23919037 24.28242889 -15 28 C-19.75 31 -19.75 31 -22 31 C-22 23.74 -22 16.48 -22 9 C-19.48375 7.515 -16.9675 6.03 -14.375 4.5 C-13.59431152 4.03013672 -12.81362305 3.56027344 -12.00927734 3.07617188 C-7.88894605 0.70376483 -4.86504813 -0.87984913 0 0 Z " fill="#5B6ABF" transform="translate(27,3)"/>
<path d="M0 0 C1.63741012 1.14122524 3.23319604 2.34212876 4.8125 3.5625 C8.77969545 5.8512666 11.58474022 6.34913972 16.0625 5.4375 C19.37430732 3.6746888 19.37430732 3.6746888 22.0625 1.4375 C23.0525 0.7775 24.0425 0.1175 25.0625 -0.5625 C27.0425 0.4275 29.0225 1.4175 31.0625 2.4375 C31.0625 3.0975 31.0625 3.7575 31.0625 4.4375 C28.52936886 5.95376852 25.98762202 7.45030099 23.4375 8.9375 C22.36822266 9.58138672 22.36822266 9.58138672 21.27734375 10.23828125 C17.0865767 12.66046771 14.01276179 14.36567408 9.0625 13.4375 C6.13386118 12.15207604 3.4249408 10.58590468 0.6875 8.9375 C-0.04855469 8.50824219 -0.78460938 8.07898437 -1.54296875 7.63671875 C-3.34794544 6.58186224 -5.14368718 5.51123119 -6.9375 4.4375 C-6.9375 3.7775 -6.9375 3.1175 -6.9375 2.4375 C-2.76971477 -0.80411074 -2.76971477 -0.80411074 0 0 Z " fill="#2A3795" transform="translate(11.9375,31.5625)"/>
<path d="M0 0 C0.66 1.32 1.32 2.64 2 4 C0.37829621 5.00533667 -1.24747237 6.00411907 -2.875 7 C-4.23238281 7.8353125 -4.23238281 7.8353125 -5.6171875 8.6875 C-8 10 -8 10 -10 10 C-10.32152515 6.46322336 -10.4131192 4.6037896 -8.375 1.625 C-5.3962104 -0.4131192 -3.53677664 -0.32152515 0 0 Z " fill="#6270C1" transform="translate(27,17)"/>
<path d="M0 0 C0.721875 0.391875 1.44375 0.78375 2.1875 1.1875 C2.1875 2.5075 2.1875 3.8275 2.1875 5.1875 C1.1875 6.1875 1.1875 6.1875 -1.6875 6.5 C-4.8125 6.1875 -4.8125 6.1875 -6.6875 4.1875 C-7.05875 3.5275 -7.43 2.8675 -7.8125 2.1875 C-3.50480769 -1.0125 -3.50480769 -1.0125 0 0 Z " fill="#2F3C97" transform="translate(25.8125,24.8125)"/>
</svg>
